<svg width="17" height="14" viewBox="0 0 17 14" fill="none" xmlns="http://www.w3.org/2000/svg">
<path d="M8.26621 3.84221C8.32466 3.78376 8.41233 3.75454 8.5 3.75454C8.55845 3.75454 8.64612 3.78376 8.70457 3.84221L14.1109 8.25498V13.0477C14.1109 13.3107 13.8771 13.5152 13.6434 13.5152H10.3411C10.1073 13.5152 9.87351 13.3107 9.87351 13.0477V10.2422C9.87351 10.0084 9.66895 9.77461 9.40593 9.77461H7.53562C7.30183 9.77461 7.06804 10.0084 7.06804 10.2422V13.0477C7.06804 13.3107 6.86348 13.5152 6.62969 13.5152H3.35664C3.09363 13.5152 2.88906 13.3107 2.88906 13.0477V8.2842L8.26621 3.84221ZM16.7703 6.85225C16.858 6.91069 16.9164 7.02759 16.9164 7.11526C16.9164 7.20293 16.8872 7.2906 16.8287 7.34905L16.0689 8.25498C16.0105 8.34265 15.9228 8.37187 15.8059 8.37187C15.7182 8.37187 15.6306 8.34265 15.5721 8.2842L8.70457 2.64404C8.64612 2.5856 8.55845 2.55637 8.5 2.55637C8.41233 2.55637 8.32466 2.5856 8.26621 2.64404L1.39866 8.2842C1.34021 8.34265 1.25254 8.37187 1.16487 8.37187C1.04797 8.37187 0.960302 8.34265 0.901855 8.25498L0.142041 7.34905C0.112817 7.2906 0.0543697 7.20293 0.0543697 7.11526C0.0543697 7.02759 0.112817 6.91069 0.200488 6.85225L7.59407 0.744506C7.82786 0.569165 8.14932 0.45227 8.5 0.45227C8.82146 0.45227 9.14292 0.569165 9.37671 0.744506L12.0068 2.90706V0.802954C12.0068 0.598388 12.153 0.45227 12.3575 0.45227H13.994C14.1694 0.45227 14.3447 0.598388 14.3447 0.802954V4.83582L16.7703 6.85225Z" fill="white"/>
</svg>
