<svg width="38" height="53" viewBox="0 0 38 53" fill="none" xmlns="http://www.w3.org/2000/svg">
<rect width="38" height="52.08" fill="white"/>
<path d="M25.9938 29.7217C26.243 29.9985 26.243 30.4138 25.9661 30.663L25.1909 31.4382C24.9417 31.715 24.5265 31.715 24.2496 31.4382L21.5087 28.6973C21.3703 28.5589 21.3149 28.3928 21.3149 28.2267V27.756C20.3183 28.5312 19.1001 28.9742 17.7712 28.9742C14.5874 28.9742 12.0126 26.3994 12.0126 23.2156C12.0126 20.0594 14.5874 17.457 17.7712 17.457C20.9273 17.457 23.5298 20.0594 23.5298 23.2156C23.5298 24.5722 23.0591 25.7903 22.3116 26.7593H22.7546C22.9207 26.7593 23.0868 26.8424 23.2252 26.9531L25.9938 29.7217ZM17.7712 26.7593C19.7092 26.7593 21.3149 25.1813 21.3149 23.2156C21.3149 21.2776 19.7092 19.6718 17.7712 19.6718C15.8055 19.6718 14.2274 21.2776 14.2274 23.2156C14.2274 25.1813 15.8055 26.7593 17.7712 26.7593Z" fill="#808080"/>
</svg>
