<svg width="15" height="15" viewBox="0 0 15 15" fill="none" xmlns="http://www.w3.org/2000/svg">
<path d="M13.9938 12.7217C14.243 12.9985 14.243 13.4138 13.9661 13.663L13.1909 14.4382C12.9417 14.715 12.5265 14.715 12.2496 14.4382L9.50874 11.6973C9.37031 11.5589 9.31494 11.3928 9.31494 11.2267V10.756C8.31826 11.5312 7.1001 11.9742 5.77119 11.9742C2.58735 11.9742 0.012598 9.39941 0.012598 6.21558C0.012598 3.05942 2.58735 0.456983 5.77119 0.456983C8.92734 0.456983 11.5298 3.05942 11.5298 6.21558C11.5298 7.57217 11.0591 8.79033 10.3116 9.75933H10.7546C10.9207 9.75933 11.0868 9.84238 11.2252 9.95313L13.9938 12.7217ZM5.77119 9.75933C7.70918 9.75933 9.31494 8.18125 9.31494 6.21558C9.31494 4.27759 7.70918 2.67183 5.77119 2.67183C3.80552 2.67183 2.22744 4.27759 2.22744 6.21558C2.22744 8.18125 3.80552 9.75933 5.77119 9.75933Z" fill="#808080"/>
</svg>
