<svg width="40" height="41" viewBox="0 0 40 41" fill="none" xmlns="http://www.w3.org/2000/svg">
<path d="M13.5381 22.2321L15.9109 28.7998C15.9109 28.7998 16.2076 29.4143 16.5253 29.4143C16.8429 29.4143 21.5678 24.4989 21.5678 24.4989L26.8219 14.3506L13.6228 20.5368L13.5381 22.2321Z" fill="#C8DAEA"/>
<path d="M16.6844 23.9163L16.2289 28.7573C16.2289 28.7573 16.0383 30.2406 17.5213 28.7573C19.0043 27.2739 20.4238 26.1301 20.4238 26.1301" fill="#A9C6D8"/>
<path d="M13.5811 22.4663L8.7001 20.8759C8.7001 20.8759 8.11677 20.6393 8.3046 20.1026C8.34327 19.9919 8.42127 19.8978 8.6546 19.7359C9.7361 18.9821 28.6723 12.1759 28.6723 12.1759C28.6723 12.1759 29.2069 11.9958 29.5223 12.1156C29.6003 12.1397 29.6705 12.1842 29.7257 12.2444C29.7809 12.3045 29.8191 12.3783 29.8364 12.4581C29.8705 12.599 29.8848 12.744 29.8788 12.8889C29.8773 13.0143 29.8621 13.1304 29.8506 13.3126C29.7353 15.1734 26.2839 29.0614 26.2839 29.0614C26.2839 29.0614 26.0774 29.8741 25.3376 29.9019C25.1558 29.9078 24.9746 29.877 24.805 29.8114C24.6353 29.7457 24.4806 29.6466 24.3501 29.5199C22.8983 28.2711 17.8803 24.8988 16.7714 24.1571C16.7464 24.14 16.7254 24.1178 16.7097 24.092C16.694 24.0661 16.684 24.0371 16.6804 24.0071C16.6649 23.9289 16.7499 23.8321 16.7499 23.8321C16.7499 23.8321 25.4876 16.0654 25.7201 15.2501C25.7381 15.1869 25.6701 15.1558 25.5788 15.1834C24.9984 15.3969 14.9381 21.7501 13.8278 22.4513C13.7478 22.4754 13.6634 22.4806 13.5811 22.4663Z" fill="white"/>
</svg>
