<svg width="22" height="18" viewBox="0 0 22 18" fill="none" xmlns="http://www.w3.org/2000/svg">
<path d="M5.53809 10.2321L7.91092 16.7998C7.91092 16.7998 8.20759 17.4143 8.52525 17.4143C8.84292 17.4143 13.5678 12.4989 13.5678 12.4989L18.8219 2.35059L5.62275 8.53675L5.53809 10.2321Z" fill="#C8DAEA"/>
<path d="M8.68442 11.9163L8.22892 16.7573C8.22892 16.7573 8.03826 18.2406 9.52126 16.7573C11.0043 15.2739 12.4238 14.1301 12.4238 14.1301" fill="#A9C6D8"/>
<path d="M5.5811 10.4663L0.700099 8.87592C0.700099 8.87592 0.116766 8.63926 0.304599 8.10259C0.343266 7.99192 0.421266 7.89776 0.654599 7.73592C1.7361 6.98209 20.6723 0.175924 20.6723 0.175924C20.6723 0.175924 21.2069 -0.00424273 21.5223 0.115591C21.6003 0.139738 21.6705 0.184175 21.7257 0.244353C21.7809 0.304532 21.8191 0.378292 21.8364 0.458091C21.8705 0.599035 21.8848 0.744043 21.8788 0.888924C21.8773 1.01426 21.8621 1.13042 21.8506 1.31259C21.7353 3.17342 18.2839 17.0614 18.2839 17.0614C18.2839 17.0614 18.0774 17.8741 17.3376 17.9019C17.1558 17.9078 16.9746 17.877 16.805 17.8114C16.6353 17.7457 16.4806 17.6466 16.3501 17.5199C14.8983 16.2711 9.88026 12.8988 8.77143 12.1571C8.74642 12.14 8.72536 12.1178 8.70966 12.092C8.69396 12.0661 8.68399 12.0371 8.68043 12.0071C8.66493 11.9289 8.74993 11.8321 8.74993 11.8321C8.74993 11.8321 17.4876 4.06542 17.7201 3.25009C17.7381 3.18692 17.6701 3.15576 17.5788 3.18343C16.9984 3.39693 6.9381 9.75009 5.82777 10.4513C5.74784 10.4754 5.66336 10.4806 5.5811 10.4663Z" fill="white"/>
</svg>
