<svg width="41" height="41" viewBox="0 0 41 41" fill="none" xmlns="http://www.w3.org/2000/svg">
<path fill-rule="evenodd" clip-rule="evenodd" d="M35.1237 13.25C35.3462 12.545 35.1237 12.0325 34.1394 12.0325H30.8662C30.0406 12.0325 29.6594 12.4813 29.4369 12.9613C29.4369 12.9613 27.7531 17.0613 25.4019 19.7194C24.6394 20.4881 24.29 20.7444 23.8769 20.7444C23.6544 20.7444 23.3681 20.4881 23.3681 19.7838V13.2169C23.3681 12.3844 23.1144 12 22.415 12H17.2675C16.7587 12 16.4412 12.3844 16.4412 12.7688C16.4412 13.5694 17.6168 13.7619 17.7437 16.0038V20.875C17.7437 21.9319 17.5562 22.125 17.14 22.125C16.0281 22.125 13.3275 17.9931 11.7075 13.285C11.3925 12.3525 11.0725 12 10.2462 12H6.94183C5.98871 12 5.82996 12.4481 5.82996 12.9288C5.82996 13.7938 6.94183 18.1494 11.0087 23.9144C13.7093 27.8519 17.5537 29.9681 21.0169 29.9681C23.1144 29.9681 23.3681 29.4875 23.3681 28.6869V25.7081C23.3681 24.7475 23.5587 24.5875 24.2262 24.5875C24.7025 24.5875 25.5606 24.8431 27.4987 26.7331C29.7225 28.975 30.1037 30 31.3431 30H34.6156C35.5687 30 36.0137 29.5194 35.7594 28.5906C35.4737 27.6619 34.3931 26.3169 32.995 24.7156C32.2325 23.8194 31.0887 22.8263 30.7394 22.3456C30.2631 21.705 30.39 21.4488 30.7394 20.8725C30.7075 20.8725 34.7112 15.1713 35.1237 13.2475" fill="white"/>
</svg>
